<?xml version="1.0" encoding="iso-8859-1"?>
<!-- Generator: Adobe Illustrator 19.0.0, SVG Export Plug-In . SVG Version: 6.00 Build 0)  -->
<svg version="1.1" id="Layer_1" xmlns="http://www.w3.org/2000/svg" xmlns:xlink="http://www.w3.org/1999/xlink" x="0px" y="0px"
	 viewBox="0 0 503.604 503.604" style="enable-background:new 0 0 503.604 503.604;" xml:space="preserve">
<g>
	<g>
		<g>
			<circle cx="226.621" cy="268.587" r="8.393"/>
			<circle cx="251.801" cy="235.013" r="8.393"/>
			<circle cx="226.621" cy="218.226" r="8.393"/>
			<circle cx="251.801" cy="293.767" r="8.393"/>
			<path d="M484.358,220.686c-3.282-3.282-8.586-3.282-11.868,0L357.441,335.735H243.408c0-4.633-3.76-8.393-8.393-8.393
				s-8.393,3.76-8.393,8.393H100.719c-4.633,0-8.393,3.752-8.393,8.393v50.361c0,38.887,20.514,72.998,51.234,92.328h-33.616
				l-41.153-8.226c-4.549-0.948-8.973,2.031-9.879,6.58s2.04,8.964,6.589,9.879l41.967,8.393c0.546,0.101,1.091,0.159,1.645,0.159
				h92.328h134.295h92.328c0.554,0,1.1-0.059,1.645-0.159l41.967-8.393c4.549-0.915,7.495-5.33,6.58-9.879
				c-0.898-4.549-5.313-7.529-9.871-6.58l-41.153,8.226h-33.616c30.72-19.33,51.234-53.441,51.234-92.328v-50.361
				c0-4.642-3.76-8.393-8.393-8.393h-55.279l103.181-103.181C487.64,229.272,487.64,223.968,484.358,220.686z"/>
			<path d="M170.186,117.784c3.164-3.173,4.91-7.386,4.91-11.868s-1.746-8.696-4.91-11.868c-6.345-6.345-17.4-6.345-23.745,0
				c-3.148,3.148-8.721,3.148-11.868,0c-3.173-3.173-7.386-4.919-11.868-4.919s-8.696,1.746-11.868,4.919
				c-3.173,3.173-4.919,7.386-4.919,11.868s1.746,8.696,4.919,11.868c1.57,1.57,2.459,3.701,2.459,5.934
				c0,2.224-0.89,4.365-2.459,5.934c-6.547,6.547-6.547,17.198,0,23.745c6.345,6.345,17.391,6.345,23.737,0
				c6.547-6.547,6.547-17.198,0-23.745c-1.637-1.637-2.459-3.785-2.459-5.934s0.823-4.297,2.459-5.934
				c3.282-3.282,8.595-3.282,11.868,0C152.786,124.129,163.84,124.129,170.186,117.784z"/>
			<path d="M168.212,239.892c6.497,0,12.943-2.501,17.811-7.378l63.278-63.278c8.612-8.612,9.829-22.125,2.904-32.138
				L164.796,10.844c-4.264-6.161-10.987-10.081-18.449-10.752c-7.487-0.63-14.772,1.998-20.06,7.286L24.164,109.5h-0.008
				c-5.296,5.288-7.94,12.615-7.269,20.069c0.68,7.462,4.591,14.177,10.744,18.432l126.263,87.418
				C158.232,238.424,163.235,239.892,168.212,239.892z M122.703,175.103c-8.964,0-17.4-3.492-23.737-9.837
				c-11.256-11.256-12.834-28.58-4.734-41.539c-3.324-5.288-5.103-11.407-5.103-17.811c0-8.973,3.492-17.391,9.837-23.737
				c10.861-10.87,28.848-12.716,41.548-4.742c12.699-7.974,30.678-6.127,41.539,4.742c6.345,6.345,9.837,14.764,9.837,23.737
				c0,8.964-3.492,17.4-9.837,23.737c-6.841,6.841-16.233,10.349-25.86,9.77c0.579,9.283-2.669,18.759-9.745,25.843
				C140.102,171.612,131.667,175.103,122.703,175.103z"/>
		</g>
	</g>
</g>
<g>
</g>
<g>
</g>
<g>
</g>
<g>
</g>
<g>
</g>
<g>
</g>
<g>
</g>
<g>
</g>
<g>
</g>
<g>
</g>
<g>
</g>
<g>
</g>
<g>
</g>
<g>
</g>
<g>
</g>
</svg>
